<?xml version="1.0" encoding="UTF-8"?>
<svg version="1.1" viewBox="0 0 76.942 88.351" xml:space="preserve" xmlns="http://www.w3.org/2000/svg" xmlns:cc="http://creativecommons.org/ns#" xmlns:dc="http://purl.org/dc/elements/1.1/" xmlns:rdf="http://www.w3.org/1999/02/22-rdf-syntax-ns#"><metadata><rdf:RDF><cc:Work rdf:about=""><dc:format>image/svg+xml</dc:format><dc:type rdf:resource="http://purl.org/dc/dcmitype/StillImage"/><dc:title/></cc:Work></rdf:RDF></metadata><defs><clipPath id="a"><path d="m0 500h500v-500h-500z"/></clipPath></defs><g transform="matrix(1.3333 0 0 -1.3333 -278.38 512.68)"><g transform="translate(50.671 461.06)"><path d="m0 0h-6.921l19.552-24.917-19.552-24.916h6.921l19.553 24.916z" fill="#fd6440"/></g><g transform="translate(61.918 461.06)"><path d="m0 0h-6.921l19.552-24.917-19.552-24.916h6.921l19.553 24.916z" fill="#fd6440"/></g><g transform="translate(73.165 461.06)"><path d="m0 0h-6.921l19.553-24.917-19.553-24.916h6.921l19.553 24.916z" fill="#fd6440"/></g><g transform="translate(143.42 458.29)"><path d="m0 0h-12.458l21.283-22.148-21.283-22.148h12.458l21.283 22.148z" fill="#1c1c1b"/></g><g transform="translate(166.43 458.29)"><path d="m0 0h-12.459l21.283-22.148-21.283-22.148h12.459l21.283 22.148z" fill="#1c1c1b"/></g><g clip-path="url(#a)"><g transform="translate(230.75 417.93)"><path d="m0 0-0.121 36.479c-0.021 6.479 7.803 9.699 12.4 5.102l18.299-18.3c2.85-2.85 2.865-7.455 0.034-10.286l-18.179-18.179c-4.567-4.566-12.412-1.295-12.433 5.184" fill="#fd6440"/></g><g transform="translate(361.78 436.14)"><path d="m0 0-31.838 31.838v-17.822h-31.319v-28.032h31.319v-17.822z" fill="#fd6440"/></g><g transform="translate(462.55 84.104)"><path d="m0 0-38.76 31.838 9.625-17.822h-28.659v-28.032h28.659l-9.625-17.822z" fill="#fd6440"/></g><g transform="translate(313.08 240.91)"><path d="m0 0v46.488l36.95-23.244zm15.707 58.495c-19.469 0-35.252-15.783-35.252-35.251 0-19.47 15.783-35.252 35.252-35.252s35.251 15.782 35.251 35.252c0 19.468-15.782 35.251-35.251 35.251" fill="#fd6440"/></g><g transform="translate(85.692 351.38)"><path d="m0 0-46.604 31.838 18.834-31.838-18.834-31.838z" fill="#fd6440"/></g><g transform="translate(184.75 84.104)"><path d="m0 0-71.495 25.648 17.239-25.648-17.239-25.648z" fill="#fd6440"/></g><g transform="translate(73.759 286.01)"><path d="m0 0-4.993-4.793 13.065-13.609h-45.521v-6.921h45.521l-13.065-13.61 4.993-4.793 20.344 21.863z" fill="#1c1c1b"/></g><g transform="translate(267.62 193.05)"><path d="m0 0-10.951-0.187 14.869-15.489h-51.809v-7.878h51.809l-14.869-15.488 10.835-0.303 18.002 19.731z" fill="#1c1c1b"/></g><g transform="translate(265.22 264.15)"><path d="m0 0c-1e-3 0.113 3e-3 0.225-2e-3 0.338-0.067 1.87-0.771 3.728-2.139 5.213l-19.033 20.678c-3.042 3.304-8.187 3.517-11.492 0.475-3.304-3.042-3.517-8.186-0.475-11.491l14.003-15.213-14.003-15.213c-3.042-3.304-2.829-8.45 0.475-11.492 3.305-3.042 8.45-2.828 11.492 0.476l19.033 20.678c1.368 1.485 2.072 3.343 2.139 5.213 5e-3 0.113 1e-3 0.225 2e-3 0.338" fill="#1c1c1b"/></g><g transform="rotate(90 -73.604 310.9)" fill="#f4591e"><path d="m0 0c-0.067 1.871-0.771 3.728-2.139 5.213l-19.033 20.678c-3.042 3.304-8.187 3.517-11.492 0.476-3.304-3.042-3.517-8.187-0.475-11.492l7.473-8.118h-33.501c-3.918 0-7.094-3.176-7.094-7.095 0-3.918 3.176-7.094 7.094-7.094h33.501l-7.473-8.119c-3.042-3.304-2.829-8.449 0.475-11.491 3.305-3.042 8.45-2.829 11.492 0.476l19.033 20.677c1.368 1.486 2.072 3.343 2.139 5.214 5e-3 0.112 1e-3 0.225 2e-3 0.337-1e-3 0.113 3e-3 0.226-2e-3 0.338" fill="#f4591e"/></g><g transform="translate(59.565 59.616)"><path d="m0 0h-20.478l25.674 25.674-23.062 23.303h20.691l23.301-23.303z" fill="#1c1c1b"/></g><g transform="translate(156.21 371.11)"><path d="m0 0c-1.298 1.297-3.402 1.297-4.7 0-1.298-1.298-1.298-3.402 0-4.701l14.266-14.266-15.8-15.8c-1.298-1.298-1.298-3.402 0-4.7 0.649-0.649 1.5-0.973 2.35-0.973s1.701 0.324 2.35 0.973l20.5 20.5z" fill="#1c1c1b"/></g><g transform="translate(139.97 371.11)"><path d="m0 0c-1.298 1.297-3.402 1.297-4.7 0-1.298-1.298-1.298-3.402 0-4.701l14.266-14.266-15.8-15.8c-1.298-1.298-1.298-3.402 0-4.7 0.649-0.649 1.5-0.973 2.35-0.973s1.701 0.324 2.35 0.973l20.5 20.5z" fill="#1c1c1b"/></g><g transform="translate(429.41 382.5)"><path d="m0 0-14.801-14.801 4.81-4.809h-32.645v-20.932h32.645l-6.903-6.903 14.801-14.801 32.169 32.17z" fill="#1c1c1b"/></g><g transform="translate(335.83 201.98)"><path d="m0 0h-6.684l-0.203-0.181 24.139-27.236-26.395-29.781h7.046l26.396 29.781z" fill="#1c1c1b"/></g><g transform="translate(323.26 201.98)"><path d="m0 0h-6.684l-0.203-0.181 24.14-27.236-26.396-29.781h7.047l26.396 29.781z" fill="#1c1c1b"/></g><g transform="translate(263.66 87.93)"><path d="m0 0-23.014 22.896c-2.032 2.023-5.319 2.014-7.341-0.019-2.022-2.032-2.013-5.319 0.019-7.341l19.46-19.361-19.46-19.362c-2.032-2.021-2.041-5.308-0.019-7.34 2.022-2.034 5.309-2.042 7.341-0.019l23.014 22.896c1.057 1.05 1.561 2.444 1.522 3.825 0.039 1.381-0.465 2.773-1.522 3.825" fill="#1c1c1b"/></g><g transform="translate(237.22 84.104)"><path d="m0 0c0.039 1.386-0.469 2.782-1.532 3.835l-11.558 11.44c-2.038 2.017-5.325 2-7.341-0.038-2.017-2.037-2-5.324 0.037-7.341l7.978-7.896-7.978-7.896c-2.037-2.017-2.054-5.304-0.037-7.341 2.016-2.038 5.303-2.055 7.341-0.038l11.558 11.44c1.063 1.053 1.571 2.449 1.532 3.835" fill="#1c1c1b"/></g><g transform="translate(158.99 147.49)"><path d="m0 0h-17.995v51.778h17.995l23.36-25.889z" fill="#1c1c1b"/></g><g transform="translate(436.13 410.25)"><path d="m0 0h-39.188l21.192 25.89-21.192 25.889h39.188l23.359-25.889z" fill="#1c1c1b"/></g><g transform="translate(71.781 199.27)"><path d="m0 0h-17.996l9.829-12.307h-21.249v-27.166h21.249l-9.829-12.305h17.996l23.36 25.888z" fill="#fd6440"/></g><g transform="translate(414.74 295.51)"><path d="m0 0c-2.766 0-5.008-2.242-5.008-5.008s2.242-5.008 5.008-5.008 5.008 2.242 5.008 5.008-2.242 5.008-5.008 5.008" fill="#fd6440"/></g><g transform="translate(414.74 282.33)"><path d="m0 0c-2.766 0-5.008-2.242-5.008-5.008s2.242-5.008 5.008-5.008 5.008 2.242 5.008 5.008-2.242 5.008-5.008 5.008" fill="#fd6440"/></g><g transform="translate(414.74 269.16)"><path d="m0 0c-2.766 0-5.008-2.242-5.008-5.008s2.242-5.008 5.008-5.008 5.008 2.242 5.008 5.008-2.242 5.008-5.008 5.008" fill="#fd6440"/></g><g transform="translate(414.74 255.98)"><path d="m0 0c-2.766 0-5.008-2.242-5.008-5.008 0-2.765 2.242-5.008 5.008-5.008s5.008 2.243 5.008 5.008c0 2.766-2.242 5.008-5.008 5.008" fill="#fd6440"/></g><g transform="translate(414.74 242.81)"><path d="m0 0c-2.766 0-5.008-2.242-5.008-5.008 0-2.765 2.242-5.008 5.008-5.008s5.008 2.243 5.008 5.008c0 2.766-2.242 5.008-5.008 5.008" fill="#fd6440"/></g><g transform="translate(428.21 282.33)"><path d="m0 0c-2.766 0-5.008-2.242-5.008-5.008s2.242-5.008 5.008-5.008 5.008 2.242 5.008 5.008-2.242 5.008-5.008 5.008" fill="#fd6440"/></g><g transform="translate(428.21 269.16)"><path d="m0 0c-2.766 0-5.008-2.242-5.008-5.008s2.242-5.008 5.008-5.008 5.008 2.242 5.008 5.008-2.242 5.008-5.008 5.008" fill="#fd6440"/></g><g transform="translate(428.21 255.98)"><path d="m0 0c-2.766 0-5.008-2.242-5.008-5.008 0-2.765 2.242-5.008 5.008-5.008s5.008 2.243 5.008 5.008c0 2.766-2.242 5.008-5.008 5.008" fill="#fd6440"/></g><g transform="translate(441.69 269.16)"><path d="m0 0c-2.766 0-5.008-2.242-5.008-5.008s2.242-5.008 5.008-5.008c2.767 0 5.009 2.242 5.009 5.008s-2.242 5.008-5.009 5.008" fill="#fd6440"/></g><g transform="translate(316.74 382.36)"><path d="m0 0c-1.784 0-3.23-1.446-3.23-3.23s1.446-3.23 3.23-3.23c1.783 0 3.229 1.446 3.229 3.23s-1.446 3.23-3.229 3.23" fill="#fd6440"/></g><g transform="translate(316.74 373.11)"><path d="m0 0c-1.784 0-3.23-1.446-3.23-3.23s1.446-3.23 3.23-3.23c1.783 0 3.229 1.446 3.229 3.23s-1.446 3.23-3.229 3.23" fill="#fd6440"/></g><g transform="translate(316.74 363.86)"><path d="m0 0c-1.784 0-3.23-1.446-3.23-3.23s1.446-3.23 3.23-3.23c1.783 0 3.229 1.446 3.229 3.23s-1.446 3.23-3.229 3.23" fill="#fd6440"/></g><g transform="translate(316.74 354.61)"><path d="m0 0c-1.784 0-3.23-1.446-3.23-3.23s1.446-3.23 3.23-3.23c1.783 0 3.229 1.446 3.229 3.23s-1.446 3.23-3.229 3.23" fill="#fd6440"/></g><g transform="translate(316.74 345.35)"><path d="m0 0c-1.784 0-3.23-1.446-3.23-3.23s1.446-3.23 3.23-3.23c1.783 0 3.229 1.446 3.229 3.23s-1.446 3.23-3.229 3.23" fill="#fd6440"/></g><g transform="translate(316.74 336.1)"><path d="m0 0c-1.784 0-3.23-1.446-3.23-3.23s1.446-3.23 3.23-3.23c1.783 0 3.229 1.446 3.229 3.23s-1.446 3.23-3.229 3.23" fill="#fd6440"/></g><g transform="translate(316.74 326.85)"><path d="m0 0c-1.784 0-3.23-1.446-3.23-3.23s1.446-3.23 3.23-3.23c1.783 0 3.229 1.446 3.229 3.23s-1.446 3.23-3.229 3.23" fill="#fd6440"/></g><g transform="translate(325.56 373.11)"><path d="m0 0c-1.784 0-3.229-1.446-3.229-3.23s1.445-3.23 3.229-3.23 3.23 1.446 3.23 3.23-1.446 3.23-3.23 3.23" fill="#fd6440"/></g><g transform="translate(325.56 363.86)"><path d="m0 0c-1.784 0-3.229-1.446-3.229-3.23s1.445-3.23 3.229-3.23 3.23 1.446 3.23 3.23-1.446 3.23-3.23 3.23" fill="#fd6440"/></g><g transform="translate(325.56 354.61)"><path d="m0 0c-1.784 0-3.229-1.446-3.229-3.23s1.445-3.23 3.229-3.23 3.23 1.446 3.23 3.23-1.446 3.23-3.23 3.23" fill="#fd6440"/></g><g transform="translate(325.56 345.35)"><path d="m0 0c-1.784 0-3.229-1.446-3.229-3.23s1.445-3.23 3.229-3.23 3.23 1.446 3.23 3.23-1.446 3.23-3.23 3.23" fill="#fd6440"/></g><g transform="translate(325.56 336.1)"><path d="m0 0c-1.784 0-3.229-1.446-3.229-3.23s1.445-3.23 3.229-3.23 3.23 1.446 3.23 3.23-1.446 3.23-3.23 3.23" fill="#fd6440"/></g><g transform="translate(334.38 363.86)"><path d="m0 0c-1.783 0-3.229-1.446-3.229-3.23s1.446-3.23 3.229-3.23c1.784 0 3.23 1.446 3.23 3.23s-1.446 3.23-3.23 3.23" fill="#fd6440"/></g><g transform="translate(334.38 354.61)"><path d="m0 0c-1.783 0-3.229-1.446-3.229-3.23s1.446-3.23 3.229-3.23c1.784 0 3.23 1.446 3.23 3.23s-1.446 3.23-3.23 3.23" fill="#fd6440"/></g><g transform="translate(334.38 345.35)"><path d="m0 0c-1.783 0-3.229-1.446-3.229-3.23s1.446-3.23 3.229-3.23c1.784 0 3.23 1.446 3.23 3.23s-1.446 3.23-3.23 3.23" fill="#fd6440"/></g><g transform="translate(343.2 354.61)"><path d="m0 0c-1.784 0-3.23-1.446-3.23-3.23s1.446-3.23 3.23-3.23c1.783 0 3.229 1.446 3.229 3.23s-1.446 3.23-3.229 3.23" fill="#fd6440"/></g><g transform="translate(438.67 204.7)"><path d="m0 0h-30.606l20.563-31.324-20.563-31.324h30.606l20.564 31.324z" fill="#fd6440"/></g><g transform="translate(398.98 204.7)"><path d="m0 0h-11.956l20.564-31.324-20.564-31.324h11.956l20.564 31.324z" fill="#fd6440"/></g><g transform="translate(126.03 288.77)"><path d="m0 0c-2.349 0-4.253-1.904-4.253-4.253 0-2.35 1.904-4.254 4.253-4.254s4.253 1.904 4.253 4.254c0 2.349-1.904 4.253-4.253 4.253" fill="#fd6440"/></g><g transform="translate(145.37 288.77)"><path d="m0 0c-2.349 0-4.253-1.904-4.253-4.253 0-2.35 1.904-4.254 4.253-4.254s4.253 1.904 4.253 4.254c0 2.349-1.904 4.253-4.253 4.253" fill="#fd6440"/></g><g transform="translate(164.7 288.77)"><path d="m0 0c-2.349 0-4.253-1.904-4.253-4.253 0-2.35 1.904-4.254 4.253-4.254s4.253 1.904 4.253 4.254c0 2.349-1.904 4.253-4.253 4.253" fill="#fd6440"/></g><g transform="translate(184.03 288.77)"><path d="m0 0c-2.349 0-4.253-1.904-4.253-4.253 0-2.35 1.904-4.254 4.253-4.254s4.253 1.904 4.253 4.254c0 2.349-1.904 4.253-4.253 4.253" fill="#fd6440"/></g><g transform="translate(135.57 278.46)"><path d="m0 0c-2.349 0-4.253-1.904-4.253-4.253 0-2.35 1.904-4.254 4.253-4.254s4.253 1.904 4.253 4.254c0 2.349-1.904 4.253-4.253 4.253" fill="#fd6440"/></g><g transform="translate(154.9 278.46)"><path d="m0 0c-2.349 0-4.253-1.904-4.253-4.253 0-2.35 1.904-4.254 4.253-4.254s4.253 1.904 4.253 4.254c0 2.349-1.904 4.253-4.253 4.253" fill="#fd6440"/></g><g transform="translate(174.24 278.46)"><path d="m0 0c-2.349 0-4.253-1.904-4.253-4.253 0-2.35 1.904-4.254 4.253-4.254s4.253 1.904 4.253 4.254c0 2.349-1.904 4.253-4.253 4.253" fill="#fd6440"/></g><g transform="translate(193.57 278.46)"><path d="m0 0c-2.349 0-4.253-1.904-4.253-4.253 0-2.35 1.904-4.254 4.253-4.254s4.253 1.904 4.253 4.254c0 2.349-1.904 4.253-4.253 4.253" fill="#fd6440"/></g><g transform="translate(145.37 268.4)"><path d="m0 0c-2.349 0-4.253-1.904-4.253-4.253 0-2.35 1.904-4.254 4.253-4.254s4.253 1.904 4.253 4.254c0 2.349-1.904 4.253-4.253 4.253" fill="#fd6440"/></g><g transform="translate(164.7 268.4)"><path d="m0 0c-2.349 0-4.253-1.904-4.253-4.253 0-2.35 1.904-4.254 4.253-4.254s4.253 1.904 4.253 4.254c0 2.349-1.904 4.253-4.253 4.253" fill="#fd6440"/></g><g transform="translate(184.03 268.4)"><path d="m0 0c-2.349 0-4.253-1.904-4.253-4.253 0-2.35 1.904-4.254 4.253-4.254s4.253 1.904 4.253 4.254c0 2.349-1.904 4.253-4.253 4.253" fill="#fd6440"/></g><g transform="translate(203.37 268.4)"><path d="m0 0c-2.349 0-4.253-1.904-4.253-4.253 0-2.35 1.904-4.254 4.253-4.254s4.253 1.904 4.253 4.254c0 2.349-1.904 4.253-4.253 4.253" fill="#fd6440"/></g><g transform="translate(135.57 258.09)"><path d="m0 0c-2.349 0-4.253-1.904-4.253-4.253 0-2.35 1.904-4.254 4.253-4.254s4.253 1.904 4.253 4.254c0 2.349-1.904 4.253-4.253 4.253" fill="#fd6440"/></g><g transform="translate(154.9 258.09)"><path d="m0 0c-2.349 0-4.253-1.904-4.253-4.253 0-2.35 1.904-4.254 4.253-4.254s4.253 1.904 4.253 4.254c0 2.349-1.904 4.253-4.253 4.253" fill="#fd6440"/></g><g transform="translate(174.24 258.09)"><path d="m0 0c-2.349 0-4.253-1.904-4.253-4.253 0-2.35 1.904-4.254 4.253-4.254s4.253 1.904 4.253 4.254c0 2.349-1.904 4.253-4.253 4.253" fill="#fd6440"/></g><g transform="translate(193.57 258.09)"><path d="m0 0c-2.349 0-4.253-1.904-4.253-4.253 0-2.35 1.904-4.254 4.253-4.254s4.253 1.904 4.253 4.254c0 2.349-1.904 4.253-4.253 4.253" fill="#fd6440"/></g><g transform="translate(126.03 248.04)"><path d="m0 0c-2.349 0-4.253-1.904-4.253-4.253 0-2.35 1.904-4.254 4.253-4.254s4.253 1.904 4.253 4.254c0 2.349-1.904 4.253-4.253 4.253" fill="#fd6440"/></g><g transform="translate(145.37 248.04)"><path d="m0 0c-2.349 0-4.253-1.904-4.253-4.253 0-2.35 1.904-4.254 4.253-4.254s4.253 1.904 4.253 4.254c0 2.349-1.904 4.253-4.253 4.253" fill="#fd6440"/></g><g transform="translate(164.7 248.04)"><path d="m0 0c-2.349 0-4.253-1.904-4.253-4.253 0-2.35 1.904-4.254 4.253-4.254s4.253 1.904 4.253 4.254c0 2.349-1.904 4.253-4.253 4.253" fill="#fd6440"/></g><g transform="translate(184.03 248.04)"><path d="m0 0c-2.349 0-4.253-1.904-4.253-4.253 0-2.35 1.904-4.254 4.253-4.254s4.253 1.904 4.253 4.254c0 2.349-1.904 4.253-4.253 4.253" fill="#fd6440"/></g><g transform="translate(389.03 86.364)"><path d="m0 0c-1.248 0-2.26-1.012-2.26-2.26s1.012-2.26 2.26-2.26 2.26 1.012 2.26 2.26-1.012 2.26-2.26 2.26" fill="#fd6440"/></g><g transform="translate(381 93.67)"><path d="m0 0c-1.248 0-2.259-1.012-2.259-2.26s1.011-2.26 2.259-2.26 2.26 1.012 2.26 2.26-1.012 2.26-2.26 2.26" fill="#fd6440"/></g><g transform="translate(381 86.364)"><path d="m0 0c-1.248 0-2.259-1.012-2.259-2.26s1.011-2.26 2.259-2.26 2.26 1.012 2.26 2.26-1.012 2.26-2.26 2.26" fill="#fd6440"/></g><g transform="translate(381 79.058)"><path d="m0 0c-1.248 0-2.259-1.012-2.259-2.26s1.011-2.26 2.259-2.26 2.26 1.012 2.26 2.26-1.012 2.26-2.26 2.26" fill="#fd6440"/></g><g transform="translate(372.97 100.98)"><path d="m0 0c-1.248 0-2.26-1.012-2.26-2.26 0-1.247 1.012-2.259 2.26-2.259 1.247 0 2.259 1.012 2.259 2.259 0 1.248-1.012 2.26-2.259 2.26" fill="#fd6440"/></g><g transform="translate(372.97 93.67)"><path d="m0 0c-1.248 0-2.26-1.012-2.26-2.26s1.012-2.26 2.26-2.26c1.247 0 2.259 1.012 2.259 2.26s-1.012 2.26-2.259 2.26" fill="#fd6440"/></g><g transform="translate(372.97 86.364)"><path d="m0 0c-1.248 0-2.26-1.012-2.26-2.26s1.012-2.26 2.26-2.26c1.247 0 2.259 1.012 2.259 2.26s-1.012 2.26-2.259 2.26" fill="#fd6440"/></g><g transform="translate(372.97 79.058)"><path d="m0 0c-1.248 0-2.26-1.012-2.26-2.26s1.012-2.26 2.26-2.26c1.247 0 2.259 1.012 2.259 2.26s-1.012 2.26-2.259 2.26" fill="#fd6440"/></g><g transform="translate(372.97 71.752)"><path d="m0 0c-1.248 0-2.26-1.012-2.26-2.259 0-1.248 1.012-2.26 2.26-2.26 1.247 0 2.259 1.012 2.259 2.26 0 1.247-1.012 2.259-2.259 2.259" fill="#fd6440"/></g><g transform="translate(364.93 108.28)"><path d="m0 0c-1.248 0-2.26-1.012-2.26-2.259 0-1.248 1.012-2.26 2.26-2.26s2.26 1.012 2.26 2.26c0 1.247-1.012 2.259-2.26 2.259" fill="#fd6440"/></g><g transform="translate(364.93 100.98)"><path d="m0 0c-1.248 0-2.26-1.012-2.26-2.26 0-1.247 1.012-2.259 2.26-2.259s2.26 1.012 2.26 2.259c0 1.248-1.012 2.26-2.26 2.26" fill="#fd6440"/></g><g transform="translate(364.93 93.67)"><path d="m0 0c-1.248 0-2.26-1.012-2.26-2.26s1.012-2.26 2.26-2.26 2.26 1.012 2.26 2.26-1.012 2.26-2.26 2.26" fill="#fd6440"/></g><g transform="translate(364.93 86.364)"><path d="m0 0c-1.248 0-2.26-1.012-2.26-2.26s1.012-2.26 2.26-2.26 2.26 1.012 2.26 2.26-1.012 2.26-2.26 2.26" fill="#fd6440"/></g><g transform="translate(364.93 79.058)"><path d="m0 0c-1.248 0-2.26-1.012-2.26-2.26s1.012-2.26 2.26-2.26 2.26 1.012 2.26 2.26-1.012 2.26-2.26 2.26" fill="#fd6440"/></g><g transform="translate(364.93 71.752)"><path d="m0 0c-1.248 0-2.26-1.012-2.26-2.259 0-1.248 1.012-2.26 2.26-2.26s2.26 1.012 2.26 2.26c0 1.247-1.012 2.259-2.26 2.259" fill="#fd6440"/></g><g transform="translate(364.93 64.446)"><path d="m0 0c-1.248 0-2.26-1.012-2.26-2.26s1.012-2.259 2.26-2.259 2.26 1.011 2.26 2.259-1.012 2.26-2.26 2.26" fill="#fd6440"/></g><g transform="translate(356.9 115.59)"><path d="m0 0c-1.248 0-2.26-1.012-2.26-2.26s1.012-2.26 2.26-2.26 2.26 1.012 2.26 2.26-1.012 2.26-2.26 2.26" fill="#fd6440"/></g><g transform="translate(356.9 108.28)"><path d="m0 0c-1.248 0-2.26-1.012-2.26-2.259 0-1.248 1.012-2.26 2.26-2.26s2.26 1.012 2.26 2.26c0 1.247-1.012 2.259-2.26 2.259" fill="#fd6440"/></g><g transform="translate(356.9 100.98)"><path d="m0 0c-1.248 0-2.26-1.012-2.26-2.26 0-1.247 1.012-2.259 2.26-2.259s2.26 1.012 2.26 2.259c0 1.248-1.012 2.26-2.26 2.26" fill="#fd6440"/></g><g transform="translate(356.9 93.67)"><path d="m0 0c-1.248 0-2.26-1.012-2.26-2.26s1.012-2.26 2.26-2.26 2.26 1.012 2.26 2.26-1.012 2.26-2.26 2.26" fill="#fd6440"/></g><g transform="translate(356.9 86.364)"><path d="m0 0c-1.248 0-2.26-1.012-2.26-2.26s1.012-2.26 2.26-2.26 2.26 1.012 2.26 2.26-1.012 2.26-2.26 2.26" fill="#fd6440"/></g><g transform="translate(356.9 79.058)"><path d="m0 0c-1.248 0-2.26-1.012-2.26-2.26s1.012-2.26 2.26-2.26 2.26 1.012 2.26 2.26-1.012 2.26-2.26 2.26" fill="#fd6440"/></g><g transform="translate(356.9 71.752)"><path d="m0 0c-1.248 0-2.26-1.012-2.26-2.259 0-1.248 1.012-2.26 2.26-2.26s2.26 1.012 2.26 2.26c0 1.247-1.012 2.259-2.26 2.259" fill="#fd6440"/></g><g transform="translate(356.9 64.446)"><path d="m0 0c-1.248 0-2.26-1.012-2.26-2.26s1.012-2.259 2.26-2.259 2.26 1.011 2.26 2.259-1.012 2.26-2.26 2.26" fill="#fd6440"/></g><g transform="translate(356.9 57.14)"><path d="m0 0c-1.248 0-2.26-1.012-2.26-2.26s1.012-2.26 2.26-2.26 2.26 1.012 2.26 2.26-1.012 2.26-2.26 2.26" fill="#fd6440"/></g><g transform="translate(348.86 122.89)"><path d="m0 0c-1.248 0-2.26-1.012-2.26-2.26s1.012-2.26 2.26-2.26 2.26 1.012 2.26 2.26-1.012 2.26-2.26 2.26" fill="#fd6440"/></g><g transform="translate(348.86 115.59)"><path d="m0 0c-1.248 0-2.26-1.012-2.26-2.26s1.012-2.26 2.26-2.26 2.26 1.012 2.26 2.26-1.012 2.26-2.26 2.26" fill="#fd6440"/></g><g transform="translate(348.86 108.28)"><path d="m0 0c-1.248 0-2.26-1.012-2.26-2.259 0-1.248 1.012-2.26 2.26-2.26s2.26 1.012 2.26 2.26c0 1.247-1.012 2.259-2.26 2.259" fill="#fd6440"/></g><g transform="translate(348.86 100.98)"><path d="m0 0c-1.248 0-2.26-1.012-2.26-2.26 0-1.247 1.012-2.259 2.26-2.259s2.26 1.012 2.26 2.259c0 1.248-1.012 2.26-2.26 2.26" fill="#fd6440"/></g><g transform="translate(348.86 93.67)"><path d="m0 0c-1.248 0-2.26-1.012-2.26-2.26s1.012-2.26 2.26-2.26 2.26 1.012 2.26 2.26-1.012 2.26-2.26 2.26" fill="#fd6440"/></g><g transform="translate(348.86 86.364)"><path d="m0 0c-1.248 0-2.26-1.012-2.26-2.26s1.012-2.26 2.26-2.26 2.26 1.012 2.26 2.26-1.012 2.26-2.26 2.26" fill="#fd6440"/></g><g transform="translate(348.86 79.058)"><path d="m0 0c-1.248 0-2.26-1.012-2.26-2.26s1.012-2.26 2.26-2.26 2.26 1.012 2.26 2.26-1.012 2.26-2.26 2.26" fill="#fd6440"/></g><g transform="translate(348.86 71.752)"><path d="m0 0c-1.248 0-2.26-1.012-2.26-2.259 0-1.248 1.012-2.26 2.26-2.26s2.26 1.012 2.26 2.26c0 1.247-1.012 2.259-2.26 2.259" fill="#fd6440"/></g><g transform="translate(348.86 64.446)"><path d="m0 0c-1.248 0-2.26-1.012-2.26-2.26s1.012-2.259 2.26-2.259 2.26 1.011 2.26 2.259-1.012 2.26-2.26 2.26" fill="#fd6440"/></g><g transform="translate(348.86 57.14)"><path d="m0 0c-1.248 0-2.26-1.012-2.26-2.26s1.012-2.26 2.26-2.26 2.26 1.012 2.26 2.26-1.012 2.26-2.26 2.26" fill="#fd6440"/></g><g transform="translate(348.86 49.835)"><path d="m0 0c-1.248 0-2.26-1.012-2.26-2.26s1.012-2.26 2.26-2.26 2.26 1.012 2.26 2.26-1.012 2.26-2.26 2.26" fill="#fd6440"/></g><g transform="translate(340.83 108.28)"><path d="m0 0c-1.247 0-2.259-1.012-2.259-2.259 0-1.248 1.012-2.26 2.259-2.26 1.248 0 2.26 1.012 2.26 2.26 0 1.247-1.012 2.259-2.26 2.259" fill="#fd6440"/></g><g transform="translate(340.83 100.98)"><path d="m0 0c-1.247 0-2.259-1.012-2.259-2.26 0-1.247 1.012-2.259 2.259-2.259 1.248 0 2.26 1.012 2.26 2.259 0 1.248-1.012 2.26-2.26 2.26" fill="#fd6440"/></g><g transform="translate(340.83 93.67)"><path d="m0 0c-1.247 0-2.259-1.012-2.259-2.26s1.012-2.26 2.259-2.26c1.248 0 2.26 1.012 2.26 2.26s-1.012 2.26-2.26 2.26" fill="#fd6440"/></g><g transform="translate(340.83 86.364)"><path d="m0 0c-1.247 0-2.259-1.012-2.259-2.26s1.012-2.26 2.259-2.26c1.248 0 2.26 1.012 2.26 2.26s-1.012 2.26-2.26 2.26" fill="#fd6440"/></g><g transform="translate(340.83 79.058)"><path d="m0 0c-1.247 0-2.259-1.012-2.259-2.26s1.012-2.26 2.259-2.26c1.248 0 2.26 1.012 2.26 2.26s-1.012 2.26-2.26 2.26" fill="#fd6440"/></g><g transform="translate(340.83 71.752)"><path d="m0 0c-1.247 0-2.259-1.012-2.259-2.259 0-1.248 1.012-2.26 2.259-2.26 1.248 0 2.26 1.012 2.26 2.26 0 1.247-1.012 2.259-2.26 2.259" fill="#fd6440"/></g><g transform="translate(340.83 64.446)"><path d="m0 0c-1.247 0-2.259-1.012-2.259-2.26s1.012-2.259 2.259-2.259c1.248 0 2.26 1.011 2.26 2.259s-1.012 2.26-2.26 2.26" fill="#fd6440"/></g><g transform="translate(332.8 108.28)"><path d="m0 0c-1.248 0-2.26-1.012-2.26-2.259 0-1.248 1.012-2.26 2.26-2.26s2.259 1.012 2.259 2.26c0 1.247-1.011 2.259-2.259 2.259" fill="#fd6440"/></g><g transform="translate(332.8 100.98)"><path d="m0 0c-1.248 0-2.26-1.012-2.26-2.26 0-1.247 1.012-2.259 2.26-2.259s2.259 1.012 2.259 2.259c0 1.248-1.011 2.26-2.259 2.26" fill="#fd6440"/></g><g transform="translate(332.8 93.67)"><path d="m0 0c-1.248 0-2.26-1.012-2.26-2.26s1.012-2.26 2.26-2.26 2.259 1.012 2.259 2.26-1.011 2.26-2.259 2.26" fill="#fd6440"/></g><g transform="translate(332.8 86.364)"><path d="m0 0c-1.248 0-2.26-1.012-2.26-2.26s1.012-2.26 2.26-2.26 2.259 1.012 2.259 2.26-1.011 2.26-2.259 2.26" fill="#fd6440"/></g><g transform="translate(332.8 79.058)"><path d="m0 0c-1.248 0-2.26-1.012-2.26-2.26s1.012-2.26 2.26-2.26 2.259 1.012 2.259 2.26-1.011 2.26-2.259 2.26" fill="#fd6440"/></g><g transform="translate(332.8 71.752)"><path d="m0 0c-1.248 0-2.26-1.012-2.26-2.259 0-1.248 1.012-2.26 2.26-2.26s2.259 1.012 2.259 2.26c0 1.247-1.011 2.259-2.259 2.259" fill="#fd6440"/></g><g transform="translate(332.8 64.446)"><path d="m0 0c-1.248 0-2.26-1.012-2.26-2.26s1.012-2.259 2.26-2.259 2.259 1.011 2.259 2.259-1.011 2.26-2.259 2.26" fill="#fd6440"/></g><g transform="translate(324.76 108.28)"><path d="m0 0c-1.248 0-2.26-1.012-2.26-2.259 0-1.248 1.012-2.26 2.26-2.26s2.26 1.012 2.26 2.26c0 1.247-1.012 2.259-2.26 2.259" fill="#fd6440"/></g><g transform="translate(324.76 100.98)"><path d="m0 0c-1.248 0-2.26-1.012-2.26-2.26 0-1.247 1.012-2.259 2.26-2.259s2.26 1.012 2.26 2.259c0 1.248-1.012 2.26-2.26 2.26" fill="#fd6440"/></g><g transform="translate(324.76 93.67)"><path d="m0 0c-1.248 0-2.26-1.012-2.26-2.26s1.012-2.26 2.26-2.26 2.26 1.012 2.26 2.26-1.012 2.26-2.26 2.26" fill="#fd6440"/></g><g transform="translate(324.76 86.364)"><path d="m0 0c-1.248 0-2.26-1.012-2.26-2.26s1.012-2.26 2.26-2.26 2.26 1.012 2.26 2.26-1.012 2.26-2.26 2.26" fill="#fd6440"/></g><g transform="translate(324.76 79.058)"><path d="m0 0c-1.248 0-2.26-1.012-2.26-2.26s1.012-2.26 2.26-2.26 2.26 1.012 2.26 2.26-1.012 2.26-2.26 2.26" fill="#fd6440"/></g><g transform="translate(324.76 71.752)"><path d="m0 0c-1.248 0-2.26-1.012-2.26-2.259 0-1.248 1.012-2.26 2.26-2.26s2.26 1.012 2.26 2.26c0 1.247-1.012 2.259-2.26 2.259" fill="#fd6440"/></g><g transform="translate(324.76 64.446)"><path d="m0 0c-1.248 0-2.26-1.012-2.26-2.26s1.012-2.259 2.26-2.259 2.26 1.011 2.26 2.259-1.012 2.26-2.26 2.26" fill="#fd6440"/></g><g transform="translate(316.73 108.28)"><path d="m0 0c-1.248 0-2.26-1.012-2.26-2.259 0-1.248 1.012-2.26 2.26-2.26s2.26 1.012 2.26 2.26c0 1.247-1.012 2.259-2.26 2.259" fill="#fd6440"/></g><g transform="translate(316.73 100.98)"><path d="m0 0c-1.248 0-2.26-1.012-2.26-2.26 0-1.247 1.012-2.259 2.26-2.259s2.26 1.012 2.26 2.259c0 1.248-1.012 2.26-2.26 2.26" fill="#fd6440"/></g><g transform="translate(316.73 93.67)"><path d="m0 0c-1.248 0-2.26-1.012-2.26-2.26s1.012-2.26 2.26-2.26 2.26 1.012 2.26 2.26-1.012 2.26-2.26 2.26" fill="#fd6440"/></g><g transform="translate(316.73 86.364)"><path d="m0 0c-1.248 0-2.26-1.012-2.26-2.26s1.012-2.26 2.26-2.26 2.26 1.012 2.26 2.26-1.012 2.26-2.26 2.26" fill="#fd6440"/></g><g transform="translate(316.73 79.058)"><path d="m0 0c-1.248 0-2.26-1.012-2.26-2.26s1.012-2.26 2.26-2.26 2.26 1.012 2.26 2.26-1.012 2.26-2.26 2.26" fill="#fd6440"/></g><g transform="translate(316.73 71.752)"><path d="m0 0c-1.248 0-2.26-1.012-2.26-2.259 0-1.248 1.012-2.26 2.26-2.26s2.26 1.012 2.26 2.26c0 1.247-1.012 2.259-2.26 2.259" fill="#fd6440"/></g><g transform="translate(316.73 64.446)"><path d="m0 0c-1.248 0-2.26-1.012-2.26-2.26s1.012-2.259 2.26-2.259 2.26 1.011 2.26 2.259-1.012 2.26-2.26 2.26" fill="#fd6440"/></g><g transform="translate(308.7 108.28)"><path d="m0 0c-1.248 0-2.259-1.012-2.259-2.259 0-1.248 1.011-2.26 2.259-2.26s2.26 1.012 2.26 2.26c0 1.247-1.012 2.259-2.26 2.259" fill="#fd6440"/></g><g transform="translate(308.7 100.98)"><path d="m0 0c-1.248 0-2.259-1.012-2.259-2.26 0-1.247 1.011-2.259 2.259-2.259s2.26 1.012 2.26 2.259c0 1.248-1.012 2.26-2.26 2.26" fill="#fd6440"/></g><g transform="translate(308.7 93.67)"><path d="m0 0c-1.248 0-2.259-1.012-2.259-2.26s1.011-2.26 2.259-2.26 2.26 1.012 2.26 2.26-1.012 2.26-2.26 2.26" fill="#fd6440"/></g><g transform="translate(308.7 86.364)"><path d="m0 0c-1.248 0-2.259-1.012-2.259-2.26s1.011-2.26 2.259-2.26 2.26 1.012 2.26 2.26-1.012 2.26-2.26 2.26" fill="#fd6440"/></g><g transform="translate(308.7 79.058)"><path d="m0 0c-1.248 0-2.259-1.012-2.259-2.26s1.011-2.26 2.259-2.26 2.26 1.012 2.26 2.26-1.012 2.26-2.26 2.26" fill="#fd6440"/></g><g transform="translate(308.7 71.752)"><path d="m0 0c-1.248 0-2.259-1.012-2.259-2.259 0-1.248 1.011-2.26 2.259-2.26s2.26 1.012 2.26 2.26c0 1.247-1.012 2.259-2.26 2.259" fill="#fd6440"/></g><g transform="translate(308.7 64.446)"><path d="m0 0c-1.248 0-2.259-1.012-2.259-2.26s1.011-2.259 2.259-2.259 2.26 1.011 2.26 2.259-1.012 2.26-2.26 2.26" fill="#fd6440"/></g><g transform="translate(300.66 108.28)"><path d="m0 0c-1.248 0-2.26-1.012-2.26-2.259 0-1.248 1.012-2.26 2.26-2.26 1.247 0 2.259 1.012 2.259 2.26 0 1.247-1.012 2.259-2.259 2.259" fill="#fd6440"/></g><g transform="translate(300.66 100.98)"><path d="m0 0c-1.248 0-2.26-1.012-2.26-2.26 0-1.247 1.012-2.259 2.26-2.259 1.247 0 2.259 1.012 2.259 2.259 0 1.248-1.012 2.26-2.259 2.26" fill="#fd6440"/></g><g transform="translate(300.66 93.67)"><path d="m0 0c-1.248 0-2.26-1.012-2.26-2.26s1.012-2.26 2.26-2.26c1.247 0 2.259 1.012 2.259 2.26s-1.012 2.26-2.259 2.26" fill="#fd6440"/></g><g transform="translate(300.66 86.364)"><path d="m0 0c-1.248 0-2.26-1.012-2.26-2.26s1.012-2.26 2.26-2.26c1.247 0 2.259 1.012 2.259 2.26s-1.012 2.26-2.259 2.26" fill="#fd6440"/></g><g transform="translate(300.66 79.058)"><path d="m0 0c-1.248 0-2.26-1.012-2.26-2.26s1.012-2.26 2.26-2.26c1.247 0 2.259 1.012 2.259 2.26s-1.012 2.26-2.259 2.26" fill="#fd6440"/></g><g transform="translate(300.66 71.752)"><path d="m0 0c-1.248 0-2.26-1.012-2.26-2.259 0-1.248 1.012-2.26 2.26-2.26 1.247 0 2.259 1.012 2.259 2.26 0 1.247-1.012 2.259-2.259 2.259" fill="#fd6440"/></g><g transform="translate(300.66 64.446)"><path d="m0 0c-1.248 0-2.26-1.012-2.26-2.26s1.012-2.259 2.26-2.259c1.247 0 2.259 1.011 2.259 2.259s-1.012 2.26-2.259 2.26" fill="#fd6440"/></g></g></g></svg>
