<?xml version="1.0" encoding="UTF-8"?>
<svg version="1.1" xmlns="http://www.w3.org/2000/svg" width="44" height="44">
<path d="M0 0 C6.12274216 3.14913382 10.05196347 7.5230779 12.25390625 14.12890625 C13.3818169 28.8472157 13.3818169 28.8472157 8.25390625 35.12890625 C2.46956594 40.88996954 -1.16307542 43.27152712 -9.49609375 43.44140625 C-17.37420415 43.37649906 -20.57034795 41.8715958 -26.49609375 36.75390625 C-31.69798711 30.68503066 -32.34503759 25.39461341 -32.15625 17.61328125 C-31.46219315 11.71710306 -29.35696882 7.49983219 -24.9609375 3.5078125 C-17.79680873 -1.86148146 -8.51453049 -2.70091081 0 0 Z " fill="#F4571D" transform="translate(31.74609375,0.87109375)"/>
<path d="M0 0 C1.15757813 -0.00257812 2.31515625 -0.00515625 3.5078125 -0.0078125 C4.72210938 -0.00007812 5.93640625 0.00765625 7.1875 0.015625 C8.40179687 0.00789062 9.61609375 0.00015625 10.8671875 -0.0078125 C12.60355469 -0.00394531 12.60355469 -0.00394531 14.375 0 C15.44105469 0.00225586 16.50710937 0.00451172 17.60546875 0.00683594 C20.1875 0.265625 20.1875 0.265625 22.1875 2.265625 C22.38602102 4.97485301 22.46589477 7.55865679 22.4375 10.265625 C22.44523437 11.00296875 22.45296875 11.7403125 22.4609375 12.5 C22.4408196 18.0123054 22.4408196 18.0123054 20.1875 20.265625 C17.60546875 20.52441406 17.60546875 20.52441406 14.375 20.53125 C13.21742187 20.53382812 12.05984375 20.53640625 10.8671875 20.5390625 C9.65289063 20.53132813 8.43859375 20.52359375 7.1875 20.515625 C5.97320312 20.52335937 4.75890625 20.53109375 3.5078125 20.5390625 C1.77144531 20.53519531 1.77144531 20.53519531 0 20.53125 C-1.59908203 20.52786621 -1.59908203 20.52786621 -3.23046875 20.52441406 C-5.8125 20.265625 -5.8125 20.265625 -7.8125 18.265625 C-8.01102102 15.55639699 -8.09089477 12.97259321 -8.0625 10.265625 C-8.07023438 9.52828125 -8.07796875 8.7909375 -8.0859375 8.03125 C-8.06075501 1.13124706 -6.71496995 0.01420943 0 0 Z " fill="#FFFFFF" transform="translate(14.8125,11.734375)"/>
<path d="M0 0 C2.64 1.65 5.28 3.3 8 5 C6.5361389 9.39158329 4.02168662 9.87947433 0 12 C0 8.04 0 4.08 0 0 Z " fill="#F4591E" transform="translate(19,16)"/>
</svg>
